PathFileType	4	(X/Y/Z)	/Users/visionmauri/Downloads/pro-gait-dataset/4_0_1_f_1_Sports2D/4_0_1_f_1_Sports2D_px_person00.trc
DataRate	CameraRate	NumFrames	NumMarkers	Units	OrigDataRate	OrigDataStartFrame	OrigNumFrames
30.0	30.0	9	22	m	30.0	490	654
Frame#	Time	Hip			RHip			RKnee			RAnkle			RBigToe			RSmallToe			RHeel			LHip			LKnee			LAnkle			LBigToe			LSmallToe			LHeel			Neck			Head			Nose			RShoulder			RElbow			RWrist			LShoulder			LElbow			LWrist			
		X1	Y1	Z1	X2	Y2	Z2	X3	Y3	Z3	X4	Y4	Z4	X5	Y5	Z5	X6	Y6	Z6	X7	Y7	Z7	X8	Y8	Z8	X9	Y9	Z9	X10	Y10	Z10	X11	Y11	Z11	X12	Y12	Z12	X13	Y13	Z13	X14	Y14	Z14	X15	Y15	Z15	X16	Y16	Z16	X17	Y17	Z17	X18	Y18	Z18	X19	Y19	Z19	X20	Y20	Z20	X21	Y21	Z21	X22	Y22	Z22
490	16.358346094946402	543.3563663618842	864.7627380612187	0.0	520.2245149037492	860.5302067049101	0.0	506.95040560860974	933.8375196727438	0.0	520.1461988511293	998.9861513638131	0.0	513.8175217560884	1034.7473735257174	0.0	506.32960474759363	1028.2430783806064	0.0	527.3638218203024	1005.1845678619986	0.0	564.1958273740978	864.398816921108	0.0	562.2150981346883	949.9474816079514	0.0	558.2958700032489	1028.8783047140382	0.0	567.832363488411	1052.4841536301128	0.0	579.0498320754707	1049.6381691153492	0.0	553.9957946910404	1040.2063453281555	0.0	553.0723418019246	758.1618783521154	0.0	557.4548243865257	704.1480868088103	0.0	554.4178049609994	739.7966593670855	0.0	519.2322694189079	764.8116444724808	0.0	492.0964791226768	808.9588737584702	0.0	477.50803772019003	855.8684588575534	0.0	586.33806952719	773.0787090715579	0.0	603.6298414734159	827.4996961619476	0.0	606.2561575900625	876.6800703688739	0.0
491	16.391730474732004	543.4455895005175	864.4678322465816	0.0	520.8556256113383	860.3430358514165	0.0	507.2811773433239	934.0699022752826	0.0	519.1244393658187	1001.9165406792222	0.0	513.86729270421	1036.6411230369758	0.0	505.6229894368301	1030.6479878548346	0.0	526.392622455933	1009.2078028345088	0.0	564.4770699657538	864.3412995378325	0.0	562.6292363788991	950.4819526263814	0.0	558.257461357157	1029.1379396070515	0.0	567.7984543902285	1052.6362768770546	0.0	578.8976005492223	1049.9030779392012	0.0	553.8135899973533	1040.2563046304779	0.0	554.0793279379918	757.1960718443971	0.0	558.1396574744117	702.8160246825848	0.0	554.6657925483661	738.9153722750125	0.0	520.2065035119655	763.7971887629244	0.0	493.6487860266999	809.0380170408115	0.0	478.7688386616618	856.6874829414462	0.0	587.1660723010991	771.452033869708	0.0	604.6934566105006	826.2910601003538	0.0	604.7007208086209	874.8537802353476	0.0
492	16.42511485451761	543.4547533871116	864.1685545953336	0.0	521.1795132549778	860.1083619778393	0.0	507.9796675916566	934.8095184881307	0.0	517.8484152524721	1006.0503027306355	0.0	513.8906492500486	1039.2823806785111	0.0	504.6217640528874	1033.9506280937967	0.0	525.0345360532579	1014.4557189211635	0.0	564.7297640810582	864.2321176984385	0.0	563.0276336791333	950.7803657303239	0.0	558.0545350755466	1029.1658709574892	0.0	567.646206699957	1052.7360559564459	0.0	578.4636599645211	1049.8464788162944	0.0	553.5482889768278	1040.1467557471708	0.0	554.9251507076854	756.5585351974611	0.0	558.6575737301483	701.7466892482304	0.0	554.8014311663783	738.0576947038265	0.0	520.9595567857094	762.9255328096153	0.0	495.3541996187416	809.358808855975	0.0	480.06700591121006	857.7464626923888	0.0	587.9109303727195	770.2986328566353	0.0	605.7768541800498	825.6093656976822	0.0	602.969735752876	873.0274983982276	0.0
493	16.458499234303215	543.607089325914	863.7448134842625	0.0	521.2798779690576	859.5573876326088	0.0	508.5708090025583	936.0433826293574	0.0	516.4712759965454	1010.5454772103279	0.0	513.2556558623752	1042.2061755417822	0.0	503.3668391238021	1037.4680261706424	0.0	523.5140197054187	1020.1266518411734	0.0	565.2120628552723	863.9565722142673	0.0	563.476804614923	950.8535390364216	0.0	557.8181306486313	1029.1613313797081	0.0	567.4630206178142	1052.7376073540825	0.0	578.308484761596	1049.6612856455206	0.0	553.3261348061014	1039.9902922201707	0.0	555.3698075513239	756.2916420947199	0.0	559.0711481623774	701.2500353666348	0.0	555.1832632031997	737.5026834525007	0.0	521.2196946237943	762.0971165020525	0.0	496.689247677215	809.9132010369532	0.0	481.09436449419235	858.8599271653535	0.0	588.5459537917499	769.5103306547118	0.0	606.5455920173529	825.1308064304754	0.0	601.0432563676048	871.4719779602636	0.0
494	16.49188361408882	543.7926558466744	863.5560527952691	0.0	521.2157929671315	859.3318165482381	0.0	509.2930181395003	937.5495940994612	0.0	515.1619724970199	1014.8150136573009	0.0	510.96492843514875	1044.565821069687	0.0	501.1421605313726	1040.345824776814	0.0	521.9750699393408	1025.584835476985	0.0	565.6118048070713	863.7957200421793	0.0	563.875749158681	950.9376799071568	0.0	557.8130880748782	1029.2461078675415	0.0	567.4177510308366	1052.5690010891265	0.0	578.5026294551038	1049.6297678817173	0.0	553.0857394687241	1040.0981864798134	0.0	555.4463360847443	756.0415192417919	0.0	559.3059788034074	700.8702233643503	0.0	555.5013881143543	737.0242370531545	0.0	521.1633767722362	761.4775380692781	0.0	497.5561208629113	810.5258670953742	0.0	482.09379977187626	859.6494641634613	0.0	588.9262115579993	768.9972905529551	0.0	607.0165058896503	824.513028767847	0.0	599.1453424673504	870.2780877576884	0.0
495	16.525267993874426	543.7402233267093	863.5783495545942	0.0	520.877468770937	859.7390917018907	0.0	510.4490658132066	939.0895990512099	0.0	514.0436135433706	1018.3678228531345	0.0	506.8567310824315	1045.689549867244	0.0	497.6406394487655	1041.7347443289596	0.0	520.4478580964947	1030.1854051978828	0.0	565.6017256929607	863.9441956237544	0.0	563.9301478847038	951.0297005723879	0.0	558.0665560529734	1029.3087050156987	0.0	567.5344798181646	1052.269183065264	0.0	578.7015006426751	1049.714520731911	0.0	552.7717018081448	1040.3147882747037	0.0	555.4119164773584	755.3953754769967	0.0	559.2614460746419	700.1714663703984	0.0	555.332810642967	736.240732950745	0.0	521.0695962112472	761.1926720255148	0.0	497.97571953478155	811.1105312315491	0.0	483.3500146152208	859.9595872300774	0.0	588.9960898062144	768.6460755282603	0.0	607.3077696302707	823.9494808865034	0.0	597.3682826449107	869.4640953245375	0.0
496	16.55865237366003	543.4199383155249	863.4178568311567	0.0	520.4626098174211	860.2976128397535	0.0	511.7415333122836	940.4078022483562	0.0	513.0298469871966	1020.6367737752469	0.0	502.36464117977613	1045.6820997101142	0.0	493.9800927032408	1041.6622179418941	0.0	519.1268251860072	1033.1900482391877	0.0	565.5026703901996	864.2334025879442	0.0	563.7257535787656	950.9985926502553	0.0	558.2982154511936	1029.2651062863408	0.0	567.730314933669	1052.0078921851953	0.0	578.812018316305	1049.7665865226143	0.0	552.5692244765752	1040.1507222262408	0.0	555.3335219218926	754.4731177284515	0.0	559.0266706386448	699.4254432575325	0.0	554.8614195616238	735.145561575013	0.0	520.8201282036913	761.2088255822689	0.0	497.8775833638013	811.6833633493022	0.0	484.3671039783998	860.1676923413233	0.0	588.875466736791	768.3511435869365	0.0	607.370022277563	823.7239437661373	0.0	595.546196666178	869.1125220531256	0.0
497	16.592036753445633	543.1179351030576	863.1028459447874	0.0	520.381224944091	860.6703499968215	0.0	512.5864924896051	941.4395068049353	0.0	511.98134480393736	1021.6604884102396	0.0	499.20538718343676	1045.2428619034113	0.0	491.4023733152727	1041.1565155464698	0.0	518.1628137218078	1034.5747789454424	0.0	565.6843694819213	864.4300566451	0.0	563.7299407199431	950.9022217846527	0.0	558.3192354497373	1029.2340903061424	0.0	567.9524450443848	1051.9089423621313	0.0	578.8354107254582	1049.7961367296155	0.0	552.5883935389572	1039.579518277953	0.0	555.0418884744726	753.7730284996755	0.0	558.6510770420699	698.9215797207161	0.0	554.5391953509552	734.0783443355293	0.0	520.1540444836963	761.4775174335216	0.0	497.3119573798638	812.103514434744	0.0	484.45962098063785	860.7624591026564	0.0	588.7497338252086	768.163674451764	0.0	607.2265798231473	823.7089118935992	0.0	593.6388247512518	869.0704355714678	0.0
498	16.62542113323124	543.040884173554	863.1149656107589	0.0	520.4871576806163	861.0329868946279	0.0	512.7975425294289	942.3740619081908	0.0	510.857704132344	1022.3267299356817	0.0	497.66728578140635	1045.190925858788	0.0	489.9622401738427	1041.2022043217587	0.0	517.288957280874	1035.397774800398	0.0	565.8902371291986	864.5386747391403	0.0	563.9764016080778	951.0393867149024	0.0	558.2285902629376	1029.3575397660275	0.0	568.0669209031789	1051.9940549384385	0.0	578.6004464961669	1049.8555849989332	0.0	552.6310485251245	1039.148096725603	0.0	554.5065760991903	753.4602710068585	0.0	558.0284676968719	698.5559637591324	0.0	554.3789816445653	733.4123602682278	0.0	519.2809277244605	761.8836270768581	0.0	496.55701703137294	812.3697680551913	0.0	483.75214262704765	861.7109305214601	0.0	588.6377372423339	768.1466206021588	0.0	606.9496835503974	823.6886498755567	0.0	591.9130601697583	868.9274193044841	0.0
